<svg width="109" height="44" viewBox="0 0 109 44" fill="none" xmlns="http://www.w3.org/2000/svg">
<path d="M99 26.9C101.3 26.9 102.6 28.4 102.6 31.2V42.7H108.4V29.3C108.4 24.5 105.8 21.6 101.4 21.6C98.3 21.6 96.6 23.3 95.4 24.9L95.3 25V22H89.5V42.7H95.3V31.1C95.2 28.4 96.6 26.9 99 26.9Z" fill="black"/>
<path d="M81.6 32.5C81.6 34 81.1 35.5 80.2 36.5C79.2 37.6 77.8 38.2 76.2 38.2C74.6 38.2 73.2 37.6 72.2 36.5C71.2 35.4 70.7 34 70.7 32.4V32.3C70.7 30.8 71.2 29.3 72.1 28.3C73.1 27.2 74.5 26.6 76.1 26.6C77.7 26.6 79.1 27.2 80.1 28.3C81 29.4 81.6 30.9 81.6 32.5ZM76.1 21.6C73 21.6 70.2 22.7 68.1 24.8C66 26.8 64.9 29.5 64.9 32.4V32.5C64.9 35.4 66 38.1 68.1 40.1C70.2 42.1 73 43.2 76.1 43.2C79.2 43.2 82 42.1 84.1 40C86.2 38 87.3 35.3 87.3 32.4V32.3C87.3 29.4 86.2 26.7 84.1 24.7C82.1 22.7 79.2 21.6 76.1 21.6Z" fill="black"/>
<path d="M59.8 42.7H66.4L58.3 30.1L66.1 22H59.2L52.3 29.7V15.1H46.5V42.7H52.3V36.4L54.4 34.2L59.8 42.7Z" fill="black"/>
<path d="M31.6 43.1C34.7 43.1 36.4 41.4 37.6 39.8L37.7 39.7V42.7H43.5V22H37.7V33.5C37.7 36.2 36.3 37.8 34 37.8C31.7 37.8 30.4 36.3 30.4 33.5V22H24.6V35.4C24.6 40.2 27.2 43.1 31.6 43.1Z" fill="black"/>
<path d="M20.7 15.7L14 26.3V26.2L7.5 15.7H0.699997L11.1 31.7V42.7H16.9V31.6L27.3 15.7H20.7Z" fill="black"/>
<path d="M76.1 0.800003L74 7.4L69.5 2.1L70.2 9L64 5.9L67.2 12L60.3 11.4L65.6 15.9L59 18L64.7 19.8L69.6 14.5L71.6 16.7L76.2 11.8L80.7 16.7L82.7 14.5L87.6 19.7L93.3 17.9L86.7 15.8L92 11.3L85.1 12L88.2 5.8L82.1 9L82.7 2.1L78.2 7.4L76.1 0.800003Z" fill="#F2A900"/>
</svg>
